<?xml version="1.0" encoding="UTF-8"?>
<svg width="512" height="512" viewBox="0 0 512 512" xmlns="http://www.w3.org/2000/svg">
  <!-- Background -->
  <rect width="512" height="512" fill="#1a4d72" rx="20"/>
  
  <!-- Jigsaw puzzle pieces -->
  <!-- Top left piece -->
  <path d="M50 50 L200 50 Q220 30 240 50 L240 200 Q220 220 200 200 L50 200 Z" fill="#ff6b35" stroke="#fff" stroke-width="3"/>
  
  <!-- Top right piece -->
  <path d="M240 50 Q260 30 280 50 L430 50 L430 200 Q410 220 390 200 L280 200 Q260 220 240 200 Z" fill="#f7931e" stroke="#fff" stroke-width="3"/>
  
  <!-- Bottom left piece -->
  <path d="M50 200 L200 200 Q220 180 240 200 L240 350 L90 350 Q70 330 50 350 Z" fill="#4ecdc4" stroke="#fff" stroke-width="3"/>
  
  <!-- Bottom right piece -->
  <path d="M240 200 Q260 180 280 200 L390 200 Q410 180 430 200 L430 350 L280 350 Q260 370 240 350 Z" fill="#45b7d1" stroke="#fff" stroke-width="3"/>
  
  <!-- Center connecting piece -->
  <circle cx="240" cy="200" r="15" fill="#fff" stroke="#333" stroke-width="2"/>
  
  <!-- SMB text -->
  <text x="256" y="420" font-family="Arial Black, sans-serif" font-size="48" font-weight="bold" fill="#fff" text-anchor="middle">SMB1</text>
  <text x="256" y="460" font-family="Arial, sans-serif" font-size="24" fill="#fff" text-anchor="middle">PROXY</text>
  
  <!-- Decorative elements -->
  <circle cx="120" cy="120" r="8" fill="#fff" opacity="0.7"/>
  <circle cx="360" cy="120" r="8" fill="#fff" opacity="0.7"/>
  <circle cx="120" cy="280" r="8" fill="#fff" opacity="0.7"/>
  <circle cx="360" cy="280" r="8" fill="#fff" opacity="0.7"/>
</svg>
